<svg id="Capa_1" data-name="Capa 1" xmlns="http://www.w3.org/2000/svg" viewBox="0 0 764 401"><defs><style>.cls-1{fill:#fff;}</style></defs><title>solo letra blanca</title><path class="cls-1" d="M27.57,238.32a4,4,0,0,0,1.85-.3,1,1,0,0,0,.5-1V205.6a1,1,0,0,0-.5-1,4.13,4.13,0,0,0-1.85-.29v-1.52H40.35v1.52c-1.57,0-2.35.42-2.35,1.26v31.46c0,.84.78,1.26,2.35,1.26v1.51H27.57Z"/><path class="cls-1" d="M54.82,238.32c1,0,1.51-.42,1.51-1.26V205.6c0-.84-.5-1.26-1.51-1.26v-1.52H67.18v1.52c-.39.06-.59.2-.59.42s.62,1,1.85,2.27l20.19,21.36V205.6q0-1.26-1.68-1.26v-1.52H97.21v1.52c-1,0-1.52.42-1.52,1.26v31.46c0,.84.51,1.26,1.52,1.26v1.51H86.27v-1.51c.4,0,.59-.14.59-.42s-.26-.62-.8-1.18l-1.8-1.93L63.4,212.58v24.48c0,.84.59,1.26,1.76,1.26v1.51H54.82Z"/><path class="cls-1" d="M145.65,210.23c0-.28-.19-.55-.59-.8a3.84,3.84,0,0,0-2-.38H120.25V218h14.8a3.16,3.16,0,0,0,1.77-.29,1.49,1.49,0,0,0,.42-1h1.52v8.83h-1.52a1.68,1.68,0,0,0-.42-1,2.9,2.9,0,0,0-1.77-.33h-14.8v12.87a1,1,0,0,0,.59,1,2.92,2.92,0,0,0,1.35.3v1.51H110.58v-1.51c1.06,0,1.6-.42,1.6-1.26V205.6q0-1.26-1.77-1.26v-1.52H143a3.51,3.51,0,0,0,2-.42,1.26,1.26,0,0,0,.59-1.09h1.52v8.92Z"/><path class="cls-1" d="M158.44,238.32a4,4,0,0,0,1.85-.3,1,1,0,0,0,.5-1V205.6a1,1,0,0,0-.5-1,4.16,4.16,0,0,0-1.85-.29v-1.52h12.78v1.52c-1.57,0-2.35.42-2.35,1.26v31.46c0,.84.78,1.26,2.35,1.26v1.51H158.44Z"/><path class="cls-1" d="M185.69,238.32c1,0,1.51-.42,1.51-1.26V205.6c0-.84-.5-1.26-1.51-1.26v-1.52h12.36v1.52c-.39.06-.59.2-.59.42s.62,1,1.85,2.27l20.19,21.36V205.6c0-.84-.56-1.26-1.69-1.26v-1.52h10.27v1.52c-1,0-1.52.42-1.52,1.26v31.46c0,.84.51,1.26,1.52,1.26v1.51H217.14v-1.51c.39,0,.59-.14.59-.42s-.27-.62-.8-1.18l-1.81-1.93-20.86-22.21v24.48q0,1.26,1.77,1.26v1.51H185.69Z"/><path class="cls-1" d="M242.54,238.32a4,4,0,0,0,1.85-.3,1,1,0,0,0,.51-1V205.6a1,1,0,0,0-.51-1,4.13,4.13,0,0,0-1.85-.29v-1.52h12.78v1.52c-1.57,0-2.35.42-2.35,1.26v31.46c0,.84.78,1.26,2.35,1.26v1.51H242.54Z"/><path class="cls-1" d="M278.71,238.32a1.44,1.44,0,0,0,.84-.3,1.09,1.09,0,0,0,.42-1v-28H269a2.52,2.52,0,0,0-1.26.33,1.18,1.18,0,0,0-.59,1.1h-1.51v-9.67h1.51a1.84,1.84,0,0,0,.59,1.59,2.05,2.05,0,0,0,1.26.42H299a2.1,2.1,0,0,0,1.27-.42,1.84,1.84,0,0,0,.59-1.59h1.51v9.67h-1.51a1.18,1.18,0,0,0-.59-1.1,2.59,2.59,0,0,0-1.27-.33H288v28c0,.84.51,1.26,1.51,1.26v1.51H278.71Z"/><path class="cls-1" d="M310.08,205.77a3.45,3.45,0,0,0-1.43-1.1,4.4,4.4,0,0,0-1.6-.33v-1.52h13.88v1.52a2,2,0,0,0-.93.29.91.91,0,0,0-.5.8,1.47,1.47,0,0,0,.33.93c.23.28.48.61.76,1l8.49,11.1L336.57,208c.5-.73.88-1.28,1.14-1.64a1.86,1.86,0,0,0,.37-1.05q0-.67-.42-.84a2.29,2.29,0,0,0-.84-.17v-1.52h12.87v1.52a3.49,3.49,0,0,0-2.23,1.13,19.86,19.86,0,0,0-2.14,2.32l-12.87,16.65v12.62c0,.84.53,1.26,1.6,1.26v1.51H322.86v-1.51c1,0,1.51-.42,1.51-1.26v-13Z"/><path class="cls-1" d="M385,238.32a3.93,3.93,0,0,0,1.85-.3,1,1,0,0,0,.51-1V205.6a1,1,0,0,0-.51-1,4.1,4.1,0,0,0-1.85-.29v-1.52H397.8v1.52c-1.57,0-2.36.42-2.36,1.26v31.46c0,.84.79,1.26,2.36,1.26v1.51H385Z"/><path class="cls-1" d="M412.26,238.32c1,0,1.52-.42,1.52-1.26V205.6c0-.84-.51-1.26-1.52-1.26v-1.52h12.37v1.52c-.4.06-.59.2-.59.42s.61,1,1.85,2.27l20.18,21.36V205.6q0-1.26-1.68-1.26v-1.52h10.26v1.52c-1,0-1.51.42-1.51,1.26v31.46c0,.84.5,1.26,1.51,1.26v1.51H443.72v-1.51c.39,0,.59-.14.59-.42s-.27-.62-.8-1.18-1.14-1.21-1.81-1.93l-20.86-22.21v24.48q0,1.26,1.77,1.26v1.51H412.26Z"/><path class="cls-1" d="M467.18,238.32c1.29,0,1.94-.42,1.94-1.26V205.6c0-.84-.65-1.26-1.94-1.26v-1.52h23.38a20.63,20.63,0,0,1,8.5,1.6,16,16,0,0,1,9,10.05,22.65,22.65,0,0,1,1,6.86,23.19,23.19,0,0,1-1,6.85,15.74,15.74,0,0,1-8.83,10,19.84,19.84,0,0,1-8.41,1.6H467.18Zm20.94-4.71a31.61,31.61,0,0,0,5-.38,9.28,9.28,0,0,0,4.12-1.68,8.9,8.9,0,0,0,2.82-3.79,17.46,17.46,0,0,0,1.05-6.68,16.86,16.86,0,0,0-1.05-6.61,8.36,8.36,0,0,0-2.82-3.61,9.1,9.1,0,0,0-4.12-1.52,41.41,41.41,0,0,0-5-.29H477.19v24.56Z"/><path class="cls-1" d="M531.19,204.34c-1.24,0-1.85.42-1.85,1.27v19.31a8,8,0,0,0,2.94,6.49q2.94,2.44,9,2.45t9-2.45a8,8,0,0,0,2.94-6.49V205.61c0-.85-.7-1.27-2.1-1.27v-1.52h11.69v1.52c-1.23,0-1.85.42-1.85,1.26v21.28a11.1,11.1,0,0,1-1.18,5,12,12,0,0,1-3.57,4.25,18,18,0,0,1-6.14,2.9,37.32,37.32,0,0,1-17.58,0,18,18,0,0,1-6.14-2.9,12,12,0,0,1-3.57-4.25,11.1,11.1,0,0,1-1.18-5V205.6a1,1,0,0,0-.51-1,4.36,4.36,0,0,0-1.93-.29v-1.52h12Z"/><path class="cls-1" d="M578.37,227a6,6,0,0,1,0,.72,6.8,6.8,0,0,0,0,.8,2.89,2.89,0,0,0,1.59,2.31,15.82,15.82,0,0,0,3.83,1.77,38.34,38.34,0,0,0,4.46,1.13,20.06,20.06,0,0,0,3.49.42,28.41,28.41,0,0,0,2.9-.17,16.3,16.3,0,0,0,3.41-.71,8.57,8.57,0,0,0,2.86-1.52,3.14,3.14,0,0,0,1.17-2.56,2.82,2.82,0,0,0-2.06-2.69,22.79,22.79,0,0,0-5.17-1.31c-2.07-.3-4.32-.61-6.73-.92a35.08,35.08,0,0,1-6.73-1.51,13.62,13.62,0,0,1-5.17-3,7.41,7.41,0,0,1-2.06-5.6,10,10,0,0,1,4.46-8.57q4.46-3.2,12.53-3.2a31.43,31.43,0,0,1,6.77.63,32.22,32.22,0,0,1,4.75,1.39,33.92,33.92,0,0,1,3.16,1.39,4.55,4.55,0,0,0,1.8.63,1.93,1.93,0,0,0,1-.21c.23-.14.51-.3.84-.47l.93.93-4.21,7.91-1.51-.51c-.06-.34-.11-.67-.17-1a1.74,1.74,0,0,0-.75-1,14.36,14.36,0,0,0-5.22-2.44,28.82,28.82,0,0,0-7.9-1,24.93,24.93,0,0,0-3.2.21,10.26,10.26,0,0,0-2.69.72,4.91,4.91,0,0,0-1.85,1.3,3,3,0,0,0-.68,2,2.76,2.76,0,0,0,2.06,2.65,24.86,24.86,0,0,0,5.18,1.26c2.07.31,4.32.62,6.73.92a32.71,32.71,0,0,1,6.72,1.56,13.34,13.34,0,0,1,5.18,3.2,7.93,7.93,0,0,1,2.06,5.8,9.7,9.7,0,0,1-1.81,6.06,12.94,12.94,0,0,1-4.5,3.7,18.68,18.68,0,0,1-5.93,1.76,47.53,47.53,0,0,1-6.1.42,30,30,0,0,1-5.67-.54,52.13,52.13,0,0,1-5.13-1.26c-1.55-.48-2.85-.93-3.92-1.35a8.78,8.78,0,0,0-1.93-.63,1.29,1.29,0,0,0-1,.5L572.9,236l3.87-9.42Z"/><path class="cls-1" d="M631.52,238.32a1.44,1.44,0,0,0,.84-.3,1.09,1.09,0,0,0,.43-1v-28H621.85a2.52,2.52,0,0,0-1.26.33,1.18,1.18,0,0,0-.59,1.1h-1.51v-9.67H620a1.84,1.84,0,0,0,.59,1.59,2.05,2.05,0,0,0,1.26.42h29.94a2.05,2.05,0,0,0,1.26-.42,1.82,1.82,0,0,0,.59-1.59h1.52v9.67h-1.52a1.16,1.16,0,0,0-.59-1.1,2.52,2.52,0,0,0-1.26-.33H640.86v28c0,.84.5,1.26,1.51,1.26v1.51H631.52Z"/><path class="cls-1" d="M687.62,202.82q7.49,0,11.69,2.49t4.21,8.45a9.32,9.32,0,0,1-.84,4,10.35,10.35,0,0,1-2.23,3.07,12,12,0,0,1-3.07,2.1,17.5,17.5,0,0,1-3.45,1.22l8.24,12a4.91,4.91,0,0,0,1.47,1.39,7.35,7.35,0,0,0,1.73.72v1.51H692.5v-1.51c.73,0,1.09-.26,1.09-.76a5.52,5.52,0,0,0-1.26-2.61L685.69,225H674v12a1,1,0,0,0,.54,1,2.22,2.22,0,0,0,1.05.3v1.51H664.41v-1.51c1,0,1.51-.42,1.51-1.26V205.6c0-.84-.5-1.26-1.51-1.26v-1.52Zm-.17,16q8.25,0,8.25-5.21a3.73,3.73,0,0,0-2-3.32q-2-1.22-6.27-1.22H674.17v9.75Z"/><path class="cls-1" d="M714.28,205.77a3.39,3.39,0,0,0-1.43-1.1,4.36,4.36,0,0,0-1.6-.33v-1.52h13.88v1.52a1.89,1.89,0,0,0-.92.29.91.91,0,0,0-.51.8,1.43,1.43,0,0,0,.34.93c.22.28.47.61.76,1l8.49,11.1L740.78,208l1.13-1.64a1.88,1.88,0,0,0,.38-1.05q0-.67-.42-.84a2.29,2.29,0,0,0-.84-.17v-1.52H753.9v1.52a3.47,3.47,0,0,0-2.23,1.13,20,20,0,0,0-2.15,2.32l-12.87,16.65v12.62c0,.84.54,1.26,1.6,1.26v1.51H727.07v-1.51c1,0,1.51-.42,1.51-1.26v-13Z"/></svg>