<svg id="Capa_1" data-name="Capa 1" xmlns="http://www.w3.org/2000/svg" viewBox="0 0 1080 1080"><defs><style>.cls-1{fill:#f01516;}.cls-2{fill:none;stroke:#f01516;stroke-miterlimit:10;stroke-width:3px;}</style></defs><title>logo dragon</title><path d="M699.68,649.07c-45.32,0-84.81-26.66-110-49A308.83,308.83,0,0,1,557,566c48.33,33.53,89.55,50.52,122.69,50.52h0c25.34,0,40.9-9.66,51.62-18.07l.32-.29.75-.56.09-.07c.67-.54,1.32-1,1.93-1.55a55.56,55.56,0,0,1,5-3.81l.32-.23a100.44,100.44,0,0,0,9.75-9.12,2.76,2.76,0,0,0,.21-.25c23.69-32.19,31.66-61.59,23.7-87.39C765,467.72,740.77,451.46,726,443.81c42.08.31,70.81,10.92,85.41,31.55,18.67,26.4,11,64.72,1.31,92.22-14.69,41.62-50.14,72.15-92.52,79.68a117.44,117.44,0,0,1-20.49,1.81Z"/><path class="cls-1" d="M737.11,447c35,1.94,59.22,12,71.95,30,18,25.4,10.44,62.76,1,89.63-14.35,40.65-49,70.46-90.33,77.81a113.78,113.78,0,0,1-20,1.77c-19.48,0-39.52-5-59.56-14.89-16.21-8-32.47-19.17-48.3-33.22-6.81-6-13-12.1-18.35-17.8,41.13,25.94,76.76,39.05,106.25,39.05,26.21,0,42.29-10,53.38-18.67.15-.13.3-.26.44-.4l.55-.39.19-.15,2-1.57a53.11,53.11,0,0,1,4.72-3.59,6.08,6.08,0,0,0,.66-.47,105.84,105.84,0,0,0,10-9.36c.14-.16.28-.33.41-.51,24.26-33,32.38-63.21,24.13-89.92-5.28-17.11-17.56-32.67-35.52-45q-1.8-1.23-3.54-2.34m-13-6.05c-3.56,0-7.21.07-11,.22,0,0,109,38.27,34.35,139.7a98.41,98.41,0,0,1-9.47,8.86,89.77,89.77,0,0,0-7.25,5.56,6.86,6.86,0,0,0-1.15.91h0c-9.38,7.36-24.53,17.46-49.86,17.46-29.47,0-72.7-13.67-136.64-61.2,0,0,67.13,99.46,156.6,99.46a120.25,120.25,0,0,0,21-1.85c44-7.81,79.84-39.45,94.71-81.54C833.06,518.46,841.45,441,724.1,441Z"/><path d="M506.87,483.79c6.75,5,11.45,10.71,12.17,19.09s2,16.66,2.89,24.26c-1.21-1.21-2.9-3.08-4.77-4.74-2.95-2.61-6.62-3.68-10.38-4.49a19.54,19.54,0,0,1-11.1-6.77c.17-.27.22-.47.34-.52,4.67-2.07,5-4.38.86-7.44a26.31,26.31,0,0,0-5-2.62c-4.84-2.14-8.7-5.14-10.08-11l1.63,1.15c1.7,1.16,3.5,1.7,5.24.2a4.38,4.38,0,0,0,1.06-5.45c-1.37-3.07-3.95-4.79-7-6.05-3.85-1.59-7.58-3.47-11.37-5.22l.32-.89c5.34,1,10.68,2,16,3,1.64.32,3.24.78,4.84,1.25a10.46,10.46,0,0,1,6.24,4.86,20.62,20.62,0,0,0,2.94,4.31c.88.85,2.61,1.73,3.54,1.4s1.47-2.08,2.07-3.27C507.4,484.64,507,484.16,506.87,483.79Z"/><path class="cls-1" d="M525.75,535l-5.84-5.86-1.17-1.2c-1-1.08-2.22-2.3-3.47-3.42-2.32-2-5.31-3-9.1-3.84A22.41,22.41,0,0,1,493.49,513l-1.32-1.59,1.1-1.75a3.27,3.27,0,0,1,1.58-1.61,7.7,7.7,0,0,0,1.92-1.1,7.61,7.61,0,0,0-1.59-1.44,21.21,21.21,0,0,0-4.12-2.16l-.35-.16c-4.15-1.82-9.87-5.15-11.71-12.92l-1.73-7.3,6.86,4.81c.34.25.61.44.88.62,1.25.85,1.49.65,1.78.4s.92-.79.32-2.13c-.88-2-2.53-3.35-5.5-4.58-2.75-1.14-5.46-2.42-8.08-3.67l-3.39-1.59-2.37-1.1,2-5.62,6.79,1.26q5.81,1.07,11.61,2.18c1.69.33,3.32.8,4.9,1.26l.18.05a13.3,13.3,0,0,1,7.88,6.12c.2.32.38.64.57,1a13.2,13.2,0,0,0,1.92,2.78,2.65,2.65,0,0,0,.44.33c0-.09.07-.17.11-.25l-3.8-9.28,8.16,6c5.27,3.88,12.38,10.3,13.32,21.13.5,5.8,1.25,11.56,2,17.14.31,2.4.62,4.74.9,7Zm-25.66-23.44a16.49,16.49,0,0,0,7.29,3.55c3.66.8,7.46,1.88,10.69,4.35-.69-5.32-1.39-10.79-1.87-16.35s-2.87-10-7.67-14.31a4.59,4.59,0,0,1-2.39,2c-2.53.87-5.33-1-6.45-2a17.84,17.84,0,0,1-2.89-4l-.51-.88a7.69,7.69,0,0,0-4.59-3.6l-.18-.05c-1.06-.3-2.07-.6-3.08-.84a12.8,12.8,0,0,1,3.88,4.91,7.2,7.2,0,0,1-1.81,8.76,6.56,6.56,0,0,1-2.87,1.47A17.66,17.66,0,0,0,493,498l.35.15a26.58,26.58,0,0,1,5.21,2.79c1.08.8,4.39,3.24,4,6.66A6,6,0,0,1,500.09,511.57Zm4.65-28Z"/><path d="M350.58,599.82a86.12,86.12,0,0,1-19.47-2.25l-.11,0a101.86,101.86,0,0,1-32.5-14.36l-.17-.1c-17.06-9.58-29.09-20.15-35.75-31.41a2.24,2.24,0,0,0-.31-.43c-3.3-3.77-4.3-8.43-4.84-12.49v0c-.24-1.78-.41-3.64-.57-5.44l-.1-1.07a129.66,129.66,0,0,1,75-130.18c2.41-1.11,4.91-2.19,7.32-3.24,3-1.31,6.13-2.65,9.16-4.11,3.71-1.78,6.59-3.37,7.08-6.22a5,5,0,0,0-.4-2.92l1.53,0c2.36-.08,4.8-.17,7.18-.17,2.15,0,4.05.07,5.79.22,10.18.83,17.32,1.78,23.75,7.12.34.29.69.6,1,.91a12.79,12.79,0,0,0,5,3.22,10.76,10.76,0,0,0,2.83.34,21.49,21.49,0,0,0,2.34-.14,5,5,0,0,0,4.27-6.4,16.34,16.34,0,0,0-1.26-3.21l10.59,1,.27,0a2.85,2.85,0,0,0,2.06-4.82,93.7,93.7,0,0,1-10.51-12.75c1.43,1.24,2.84,2.45,4.28,3.65a52.15,52.15,0,0,0,6.71,4.51l.93.55a36.74,36.74,0,0,0,3.53,1.8c3.29,1.53,5.35,2.6,6.18,5.21a2.83,2.83,0,0,0,2.71,2,2.91,2.91,0,0,0,.77-.1,2.86,2.86,0,0,0,2-3.41c-2.41-10-3.37-18.7-2.87-26.68a87.2,87.2,0,0,0,14.45,31.52c10.06,13.88,21.75,27.91,39.11,36.44a6.5,6.5,0,0,1,.59.32c-1.05-.23-2.08-.42-3.1-.6a36.12,36.12,0,0,1-7.61-2,14.43,14.43,0,0,1-2.9-1.93c-.57-.44-1.13-.87-1.72-1.28a2.79,2.79,0,0,0-1.63-.52,2.85,2.85,0,0,0-2.84,3.12c.93,9.89,4.65,13.67,13.71,13.92a7.13,7.13,0,0,1,3.5.94,2.34,2.34,0,0,1,.35.23c2.33,7.63,7.36,13.46,14.94,17.35a2.12,2.12,0,0,1,1.09,2.61c-2.23,6.07-4.92,10.61-8.48,14.24-3.82-9.4-10.76-15.7-20.69-18.74a44.49,44.49,0,0,1-6.64-2.88c-1-.47-1.89-.94-2.84-1.39-6.77-3.16-13.17-6.14-15.22-13.8a2.85,2.85,0,0,0-2.75-2.11h-.19a2.86,2.86,0,0,0-2.64,2.47c-.13,1-.38,2.27-.65,3.6-1.24,6.25-2.94,14.82,3.44,18.63,2.85,1.71,5.84,3.21,8.72,4.66s6.07,3.06,8.92,4.8a69.05,69.05,0,0,1,12,9.19,8.35,8.35,0,0,1,1.7,2,9.64,9.64,0,0,1-2.41,1.94,12.87,12.87,0,0,1-1.33.76c-2.62-10.82-11-16.45-25.45-17.18-5.3-.27-8.21-3.13-11.88-6.76a50.16,50.16,0,0,0-7.66-6.52c-13.31-8.74-17.07-17-12.95-28.48a2.85,2.85,0,0,0-2.68-3.81,2.82,2.82,0,0,0-2.25,1.1c-5,6.44-5.49,11-3.18,21.9a104.45,104.45,0,0,0-22-2.49c-23.64,0-43.69,9.42-59.6,28-15.19,17.73-21.75,37.55-19.64,59.18-8.18-25.56-5.94-53.5,6.61-85.95a2.84,2.84,0,0,0-1.38-3.57,2.81,2.81,0,0,0-1.28-.31,2.86,2.86,0,0,0-2.41,1.33,123.91,123.91,0,0,0-16.45,41.24c-5,24.33-3,47,6.12,67.31,12.63,28.19,35.24,45.57,67.28,51.74a63.68,63.68,0,0,1-7.3,1C354.76,599.74,352.66,599.82,350.58,599.82Z"/><path class="cls-1" d="M438.48,378.9a93.11,93.11,0,0,0,7.7,12.61c6.65,9.19,14,18.45,23.27,26.22a5.75,5.75,0,0,0-3.91,6c1.06,11.27,6,16.2,16.47,16.5a5.25,5.25,0,0,1,1.57.27,31.05,31.05,0,0,0,15.48,17.66,39.91,39.91,0,0,1-4.89,9.37c-4.38-7.95-11.26-13.4-20.54-16.24a42.56,42.56,0,0,1-6.2-2.71c-.94-.47-1.91-1-2.91-1.42-7.44-3.47-12.07-6-13.67-12a5.7,5.7,0,0,0-5.5-4.22H445a5.69,5.69,0,0,0-5.27,4.94c-.13.94-.37,2.14-.62,3.42-1.25,6.28-3.34,16.79,4.77,21.64h0c-2-.92-3.73-2.58-6.24-5.05a51.82,51.82,0,0,0-8.09-6.87c-12.3-8.08-15.51-14.89-11.84-25.14a5.7,5.7,0,0,0-9.86-5.42c-4.44,5.71-6,10-4.47,20a104,104,0,0,0-18.46-1.73c-24.51,0-45.29,9.75-61.76,29C313.19,477.37,306.78,490,304,503.5c-1.45-18.8,2.19-39.1,10.9-61.63a5.7,5.7,0,0,0-10.13-5.1A126.77,126.77,0,0,0,288,479c-5.16,24.93-3,48.16,6.31,69.05,7.39,16.49,18.14,29.51,32,38.7a93.2,93.2,0,0,0,20.62,10.18,82.71,82.71,0,0,1-15-2.08l-.14,0a99.37,99.37,0,0,1-31.59-14l-.33-.2c-16.62-9.33-28.3-19.56-34.7-30.38a5.81,5.81,0,0,0-.61-.86c-2.23-2.54-3.48-5.83-4.17-11h0c-.23-1.74-.39-3.51-.56-5.38l-.1-1.06A126.79,126.79,0,0,1,332.94,404.6c2.37-1.1,4.85-2.18,7.25-3.22,3-1.31,6.18-2.67,9.26-4.15,3.51-1.68,7.88-3.78,8.66-8.3,0-.23.06-.45.08-.67,1.81-.06,3.64-.11,5.42-.11,2.08,0,3.89.07,5.56.21,9.92.81,16.36,1.65,22.16,6.47.31.26.63.55.94.83a15.17,15.17,0,0,0,6.16,3.85A13.17,13.17,0,0,0,402,400c.94,0,1.86-.08,2.62-.15a7.83,7.83,0,0,0,6.93-9.19l6.13.58a4.89,4.89,0,0,0,.54,0,5.71,5.71,0,0,0,5.4-7.51l.39.18c3,1.41,4.21,2.08,4.66,3.49a5.7,5.7,0,0,0,5.43,4,5.89,5.89,0,0,0,1.54-.21,5.71,5.71,0,0,0,4-6.82c-.45-1.86-.84-3.67-1.19-5.43m-3.86-37.69c-5.18,14.71-4.11,29.39-.5,44.45-1.68-5.3-6.95-6.18-10.95-8.58a57.76,57.76,0,0,1-7.29-4.81c-4.9-4.08-9.6-8.39-15.54-13.62,4.07,10.9,10.12,18.76,17.89,26.88l-21.6-2c2.31,1.77,5.32,2.33,7.31,4.07a8.06,8.06,0,0,1,2,3.84,2.14,2.14,0,0,1-1.83,2.75,20.47,20.47,0,0,1-2.05.12,7.9,7.9,0,0,1-2.08-.24c-1.85-.51-3.39-2.26-5-3.57-7.37-6.13-15.73-7-25.33-7.77-2-.17-4-.23-6-.23-4.84,0-9.69.34-14.47.34,4.88,4.91,4.72,6-2.15,9.3-5.41,2.6-11,4.81-16.45,7.34a132.47,132.47,0,0,0-76.63,133c.21,2.23.4,4.47.69,6.68h0c.68,5.06,2,9.92,5.53,14,8.15,13.8,22.91,24.65,36.81,32.46a104.49,104.49,0,0,0,33.41,14.75l.12,0h0a87.91,87.91,0,0,0,20.12,2.33c2.14,0,4.29-.08,6.47-.24,7.85-.57,15.56-3,23.37-4.15-2.08-.92-4.29-.8-6.45-1.06-33.93-4-60.13-19.48-74.49-51.55-9.43-21-10.59-43.11-5.94-65.56a120.55,120.55,0,0,1,16.07-40.3c-15.19,39.3-17.64,77.79,6.24,114.84-12.71-30.66-10.21-59.71,11.61-85.18,16-18.69,35.56-27,57.44-27a104.71,104.71,0,0,1,25.78,3.45c-3.33-14.08-3.11-17.84,1.65-24-5.47,15.26,2.67,24.35,14.07,31.83,8.21,5.39,11.11,13.24,21,13.74,14.82.76,22.12,6.54,23.44,18.53a51.9,51.9,0,0,0,5.06-2.57c4.5-3,5-4.65,1.13-8.39a72.16,72.16,0,0,0-12.55-9.57c-5.69-3.49-11.93-6-17.66-9.48s-2.18-13.69-1.42-19.41c2.36,8.81,9.53,12.27,16.76,15.64,3.27,1.53,6.44,3.37,9.85,4.42,10.56,3.23,17.16,10.2,20.23,21,6.3-4.95,9.87-11.22,12.46-18.24a5,5,0,0,0-2.47-6.13c-6.66-3.41-11.43-8.51-13.61-16a3.2,3.2,0,0,0-1.51-1.53,10,10,0,0,0-4.89-1.33c-7.55-.22-10.16-2.93-10.95-11.35,1.74,1.22,3.28,2.71,5.12,3.49,4.21,1.81,8.75,2,13.15,3.2a6.6,6.6,0,0,0,1.62.2,7.32,7.32,0,0,0,2.94-.63,23.85,23.85,0,0,0-2.69-3.92,9.45,9.45,0,0,0-2.51-1.77c-16.29-8-27.69-21.23-38.06-35.55a84,84,0,0,1-16.17-47Z"/><path d="M386.24,650a128.34,128.34,0,0,1-77.32-25.64,126.93,126.93,0,0,1-28.46-29.46,140,140,0,0,0,11.47,8.66c20.84,14,41.45,20.76,63,20.76a103.69,103.69,0,0,0,10.83-.58c19.56-2.09,35.51-8.82,47.41-20,31.54-29.62,63.37-60,94.14-89.34q17-16.2,33.95-32.38c2.76-2.62,5.49-5.27,8.23-7.91,4.6-4.44,9.35-9,14.11-13.44a2.81,2.81,0,0,0,.29-.31,381.93,381.93,0,0,1,60.84-45.83l.17-.12A131.27,131.27,0,0,1,653,399.16l.16-.07a127.57,127.57,0,0,1,30.1-7.67,136.72,136.72,0,0,1,17.46-1.13c43.94,0,83.33,21.13,107.59,57.1a210.74,210.74,0,0,0-21.11-15.12c-18-10.84-36.45-16.34-54.84-16.34a98.56,98.56,0,0,0-29,4.46,88.09,88.09,0,0,0-35.69,21.3C617,490.22,565.34,539.36,515.34,586.88l-.89.84a12.81,12.81,0,0,1-2,1.5,2.4,2.4,0,0,0-.37.28,344.26,344.26,0,0,1-52.19,37.91l-.17.1A126.16,126.16,0,0,1,432,641.86l-.17.07-1.22.54a2.65,2.65,0,0,0-.73.16A131.8,131.8,0,0,1,386.24,650Z"/><path class="cls-1" d="M700.7,393.14a127.14,127.14,0,0,1,64.36,17.34,125.58,125.58,0,0,1,27.32,21.69q-1.85-1.2-3.73-2.34c-18.45-11.11-37.39-16.75-56.3-16.75h0a101.54,101.54,0,0,0-29.8,4.58,90.88,90.88,0,0,0-36.82,22c-50.62,48.5-102.29,97.6-152.26,145.09l-1,.93a10.47,10.47,0,0,1-1.53,1.15,5,5,0,0,0-.74.56A342.05,342.05,0,0,1,458.48,625l-.34.22a124.2,124.2,0,0,1-27.09,14l-.34.14-.84.37a6,6,0,0,0-.9.24,128.72,128.72,0,0,1-42.73,7.25,125.46,125.46,0,0,1-75.6-25.06A136.41,136.41,0,0,1,296.71,610c19.18,11.56,38.29,17.19,58.21,17.19a104.36,104.36,0,0,0,11.14-.6c20.18-2.16,36.69-9.14,49.05-20.75,31.55-29.61,63.36-60,94.13-89.33q17-16.2,34-32.4c2.76-2.63,5.55-5.32,8.24-7.92,4.59-4.44,9.33-9,14.07-13.4.15-.14.29-.29.43-.44A379,379,0,0,1,626.2,417a4,4,0,0,0,.34-.23,128.75,128.75,0,0,1,27.48-15l.12-.05h0a124.1,124.1,0,0,1,29.43-7.5,132.77,132.77,0,0,1,17.09-1.11m0-5.69a137.7,137.7,0,0,0-17.82,1.14,129.46,129.46,0,0,0-30.78,7.85l0,0-.21.11a133.1,133.1,0,0,0-28.7,15.63,378.74,378.74,0,0,0-61.6,46.47l0,0c-7.57,7-14.9,14.26-22.37,21.38-42.65,40.61-85.14,81.39-128.08,121.7-12.62,11.85-28.72,17.41-45.76,19.23a96.46,96.46,0,0,1-10.53.57c-22.26,0-42.58-7.66-61.41-20.28a149.83,149.83,0,0,1-13.05-10c-4-3.41-7.79-7.18-11.66-10.79,9,18.67,22,33.78,38.39,46.23a130.46,130.46,0,0,0,79.05,26.22,135.18,135.18,0,0,0,44.62-7.57l-.33.32,2.5-1.11a129,129,0,0,0,28.34-14.67A347,347,0,0,0,514,591.63a15.8,15.8,0,0,0,2.41-1.84q76.73-72.91,153.25-146a85.84,85.84,0,0,1,34.55-20.64,95.35,95.35,0,0,1,28.13-4.33c18.61,0,36.42,5.72,53.37,15.93,11.62,7,22,16.13,32.23,23.79v0a7.69,7.69,0,0,0-.74-2c-24.13-43.83-68.39-69.1-116.51-69.1Z"/><path d="M179.57,714.32a4,4,0,0,0,1.85-.3,1,1,0,0,0,.5-1V681.6a1,1,0,0,0-.5-1,4.13,4.13,0,0,0-1.85-.29v-1.52h12.78v1.52c-1.57,0-2.35.42-2.35,1.26v31.46c0,.84.78,1.26,2.35,1.26v1.51H179.57Z"/><path d="M206.82,714.32c1,0,1.51-.42,1.51-1.26V681.6c0-.84-.5-1.26-1.51-1.26v-1.52h12.36v1.52c-.39.06-.59.2-.59.42s.62,1,1.85,2.27l20.19,21.36V681.6q0-1.26-1.68-1.26v-1.52h10.26v1.52c-1,0-1.52.42-1.52,1.26v31.46c0,.84.51,1.26,1.52,1.26v1.51H238.27v-1.51c.4,0,.59-.14.59-.42s-.26-.62-.8-1.18l-1.8-1.93L215.4,688.58v24.48c0,.84.59,1.26,1.76,1.26v1.51H206.82Z"/><path d="M297.65,686.23c0-.28-.19-.55-.59-.8a3.84,3.84,0,0,0-2-.38H272.25V694h14.8a3.16,3.16,0,0,0,1.77-.29,1.49,1.49,0,0,0,.42-1h1.52v8.83h-1.52a1.68,1.68,0,0,0-.42-1,2.9,2.9,0,0,0-1.77-.33h-14.8v12.87a1,1,0,0,0,.59,1,2.92,2.92,0,0,0,1.35.3v1.51H262.58v-1.51c1.06,0,1.6-.42,1.6-1.26V681.6q0-1.26-1.77-1.26v-1.52H295a3.51,3.51,0,0,0,2-.42,1.26,1.26,0,0,0,.59-1.09h1.52v8.92Z"/><path d="M310.44,714.32a4,4,0,0,0,1.85-.3,1,1,0,0,0,.5-1V681.6a1,1,0,0,0-.5-1,4.16,4.16,0,0,0-1.85-.29v-1.52h12.78v1.52c-1.57,0-2.35.42-2.35,1.26v31.46c0,.84.78,1.26,2.35,1.26v1.51H310.44Z"/><path d="M337.69,714.32c1,0,1.51-.42,1.51-1.26V681.6c0-.84-.5-1.26-1.51-1.26v-1.52h12.36v1.52c-.39.06-.59.2-.59.42s.62,1,1.85,2.27l20.19,21.36V681.6c0-.84-.56-1.26-1.69-1.26v-1.52h10.27v1.52c-1,0-1.52.42-1.52,1.26v31.46c0,.84.51,1.26,1.52,1.26v1.51H369.14v-1.51c.39,0,.59-.14.59-.42s-.27-.62-.8-1.18l-1.81-1.93-20.86-22.21v24.48q0,1.26,1.77,1.26v1.51H337.69Z"/><path d="M394.54,714.32a4,4,0,0,0,1.85-.3,1,1,0,0,0,.51-1V681.6a1,1,0,0,0-.51-1,4.13,4.13,0,0,0-1.85-.29v-1.52h12.78v1.52c-1.57,0-2.35.42-2.35,1.26v31.46c0,.84.78,1.26,2.35,1.26v1.51H394.54Z"/><path d="M430.71,714.32a1.44,1.44,0,0,0,.84-.3,1.09,1.09,0,0,0,.42-1v-28H421a2.52,2.52,0,0,0-1.26.33,1.18,1.18,0,0,0-.59,1.1h-1.51v-9.67h1.51a1.84,1.84,0,0,0,.59,1.59,2.05,2.05,0,0,0,1.26.42H451a2.1,2.1,0,0,0,1.27-.42,1.84,1.84,0,0,0,.59-1.59h1.51v9.67h-1.51a1.18,1.18,0,0,0-.59-1.1,2.59,2.59,0,0,0-1.27-.33H440v28c0,.84.51,1.26,1.51,1.26v1.51H430.71Z"/><path d="M462.08,681.77a3.45,3.45,0,0,0-1.43-1.1,4.4,4.4,0,0,0-1.6-.33v-1.52h13.88v1.52a2,2,0,0,0-.93.29.91.91,0,0,0-.5.8,1.47,1.47,0,0,0,.33.93c.23.28.48.61.76,1l8.49,11.1L488.57,684c.5-.73.88-1.28,1.14-1.64a1.86,1.86,0,0,0,.37-1q0-.68-.42-.84a2.29,2.29,0,0,0-.84-.17v-1.52h12.87v1.52a3.49,3.49,0,0,0-2.23,1.13,19.86,19.86,0,0,0-2.14,2.32l-12.87,16.65v12.62c0,.84.53,1.26,1.6,1.26v1.51H474.86v-1.51c1,0,1.52-.42,1.52-1.26v-13Z"/><path d="M537,714.32a3.93,3.93,0,0,0,1.85-.3,1,1,0,0,0,.51-1V681.6a1,1,0,0,0-.51-1,4.1,4.1,0,0,0-1.85-.29v-1.52H549.8v1.52c-1.57,0-2.36.42-2.36,1.26v31.46c0,.84.79,1.26,2.36,1.26v1.51H537Z"/><path d="M564.26,714.32c1,0,1.52-.42,1.52-1.26V681.6c0-.84-.51-1.26-1.52-1.26v-1.52h12.37v1.52c-.4.06-.59.2-.59.42s.61,1,1.85,2.27l20.18,21.36V681.6q0-1.26-1.68-1.26v-1.52h10.26v1.52c-1,0-1.51.42-1.51,1.26v31.46c0,.84.5,1.26,1.51,1.26v1.51H595.72v-1.51c.39,0,.59-.14.59-.42s-.27-.62-.8-1.18-1.14-1.21-1.81-1.93l-20.86-22.21v24.48q0,1.26,1.77,1.26v1.51H564.26Z"/><path d="M619.18,714.32c1.29,0,1.94-.42,1.94-1.26V681.6c0-.84-.65-1.26-1.94-1.26v-1.52h23.38a20.63,20.63,0,0,1,8.5,1.6,16,16,0,0,1,9,10.05,22.65,22.65,0,0,1,1,6.86,23.19,23.19,0,0,1-1,6.85,15.74,15.74,0,0,1-8.83,10.05,19.84,19.84,0,0,1-8.41,1.6H619.18Zm20.94-4.71a31.61,31.61,0,0,0,5-.38,9.28,9.28,0,0,0,4.12-1.68,8.9,8.9,0,0,0,2.82-3.79,17.46,17.46,0,0,0,1.05-6.68,16.86,16.86,0,0,0-1.05-6.61,8.36,8.36,0,0,0-2.82-3.61,9.1,9.1,0,0,0-4.12-1.52,41.41,41.41,0,0,0-5-.29H629.19v24.56Z"/><path d="M683.19,680.34c-1.24,0-1.85.42-1.85,1.27v19.31a8,8,0,0,0,2.94,6.49q2.94,2.45,9,2.45t9-2.45a8,8,0,0,0,2.94-6.49V681.61c0-.85-.7-1.27-2.1-1.27v-1.52h11.69v1.52c-1.23,0-1.85.42-1.85,1.26v21.28a11.1,11.1,0,0,1-1.18,5,12,12,0,0,1-3.57,4.25,18,18,0,0,1-6.14,2.9,37.32,37.32,0,0,1-17.58,0,18,18,0,0,1-6.14-2.9,12,12,0,0,1-3.57-4.25,11.1,11.1,0,0,1-1.18-5V681.6a1,1,0,0,0-.51-1,4.36,4.36,0,0,0-1.93-.29v-1.52h12Z"/><path d="M730.37,703a6,6,0,0,1,0,.72,6.8,6.8,0,0,0,0,.8,2.89,2.89,0,0,0,1.59,2.31,15.82,15.82,0,0,0,3.83,1.77,38.34,38.34,0,0,0,4.46,1.13,20.06,20.06,0,0,0,3.49.42,28.41,28.41,0,0,0,2.9-.17,16.3,16.3,0,0,0,3.41-.71,8.57,8.57,0,0,0,2.86-1.52,3.14,3.14,0,0,0,1.17-2.56,2.82,2.82,0,0,0-2.06-2.69,22.79,22.79,0,0,0-5.17-1.31c-2.07-.3-4.32-.61-6.73-.92a35.08,35.08,0,0,1-6.73-1.51,13.62,13.62,0,0,1-5.17-3,7.41,7.41,0,0,1-2.06-5.6,10,10,0,0,1,4.46-8.57q4.46-3.19,12.53-3.2a31.43,31.43,0,0,1,6.77.63,32.22,32.22,0,0,1,4.75,1.39,33.92,33.92,0,0,1,3.16,1.39,4.55,4.55,0,0,0,1.8.63,1.93,1.93,0,0,0,1-.21c.23-.14.51-.3.84-.47l.93.93-4.21,7.91-1.51-.51c-.06-.34-.11-.67-.17-1a1.74,1.74,0,0,0-.75-1,14.36,14.36,0,0,0-5.22-2.44,28.82,28.82,0,0,0-7.9-1,24.93,24.93,0,0,0-3.2.21,10.26,10.26,0,0,0-2.69.72,4.91,4.91,0,0,0-1.85,1.3,3,3,0,0,0-.68,2,2.76,2.76,0,0,0,2.06,2.65,24.86,24.86,0,0,0,5.18,1.26c2.07.31,4.32.62,6.73.92a32.71,32.71,0,0,1,6.72,1.56,13.34,13.34,0,0,1,5.18,3.2,7.93,7.93,0,0,1,2.06,5.8,9.7,9.7,0,0,1-1.81,6.06,12.94,12.94,0,0,1-4.5,3.7,18.68,18.68,0,0,1-5.93,1.76,47.53,47.53,0,0,1-6.1.42,30,30,0,0,1-5.67-.54,52.13,52.13,0,0,1-5.13-1.26c-1.55-.48-2.85-.93-3.92-1.35a8.78,8.78,0,0,0-1.93-.63,1.29,1.29,0,0,0-1,.5L724.9,712l3.87-9.42Z"/><path d="M783.52,714.32a1.44,1.44,0,0,0,.84-.3,1.09,1.09,0,0,0,.43-1v-28H773.85a2.52,2.52,0,0,0-1.26.33,1.18,1.18,0,0,0-.59,1.1h-1.51v-9.67H772a1.84,1.84,0,0,0,.59,1.59,2.05,2.05,0,0,0,1.26.42h29.94a2.05,2.05,0,0,0,1.26-.42,1.82,1.82,0,0,0,.59-1.59h1.52v9.67h-1.52a1.16,1.16,0,0,0-.59-1.1,2.52,2.52,0,0,0-1.26-.33H792.86v28c0,.84.5,1.26,1.51,1.26v1.51H783.52Z"/><path d="M839.62,678.82q7.49,0,11.69,2.49t4.21,8.45a9.32,9.32,0,0,1-.84,4,10.35,10.35,0,0,1-2.23,3.07,12,12,0,0,1-3.07,2.1,17.5,17.5,0,0,1-3.45,1.22l8.24,12a4.91,4.91,0,0,0,1.47,1.39,7.35,7.35,0,0,0,1.73.72v1.51H844.5v-1.51c.73,0,1.09-.26,1.09-.76a5.52,5.52,0,0,0-1.26-2.61L837.69,701H826v12a1,1,0,0,0,.54,1,2.22,2.22,0,0,0,1.05.3v1.51H816.41v-1.51c1,0,1.51-.42,1.51-1.26V681.6c0-.84-.5-1.26-1.51-1.26v-1.52Zm-.17,16q8.25,0,8.25-5.21a3.73,3.73,0,0,0-2-3.32q-2-1.21-6.27-1.22H826.17v9.75Z"/><path d="M866.28,681.77a3.39,3.39,0,0,0-1.43-1.1,4.36,4.36,0,0,0-1.6-.33v-1.52h13.88v1.52a1.89,1.89,0,0,0-.92.29.91.91,0,0,0-.51.8,1.43,1.43,0,0,0,.34.93c.22.28.47.61.76,1l8.49,11.1L892.78,684l1.13-1.64a1.88,1.88,0,0,0,.38-1q0-.68-.42-.84a2.29,2.29,0,0,0-.84-.17v-1.52H905.9v1.52a3.47,3.47,0,0,0-2.23,1.13,20,20,0,0,0-2.15,2.32l-12.87,16.65v12.62c0,.84.54,1.26,1.6,1.26v1.51H879.07v-1.51c1,0,1.51-.42,1.51-1.26v-13Z"/><line class="cls-2" x1="221.79" y1="663.93" x2="857.23" y2="663.93"/></svg>